<?xml version="1.0" encoding="UTF-8"?>
<svg id="Layer_2" data-name="Layer 2" xmlns="http://www.w3.org/2000/svg" viewBox="0 0 1493.51 238.6">
  <defs>
    <style>
      .cls-1 {
        fill: #cc0e4e;
      }

      .cls-2 {
        fill: #fff;
      }
    </style>
  </defs>
  <g id="Layer_1-2" data-name="Layer 1">
    <g>
      <g>
        <rect class="cls-1" x=".05" y="0" width="89.54" height="88.75"/>
        <polygon class="cls-1" points=".05 238.6 153.52 238.6 238.65 153.47 238.65 0 153.63 0 153.63 152.99 .05 152.99 .05 238.6"/>
        <rect class="cls-1" x="0" y="0" width="89.59" height="88.75"/>
        <rect class="cls-1" x="0" y="0" width="89.59" height="88.75"/>
      </g>
      <g>
        <path class="cls-2" d="M375.99,47.24c44.53,0,69.91,17.85,69.91,61.74v21.51c0,43.02-24.95,60.88-69.91,60.88h-70.99V47.24h70.99ZM340.28,162.11h35.71c24.74,0,33.99-9.68,33.99-31.62v-21.51c0-22.16-9.03-32.48-33.99-32.48h-35.71v85.61Z"/>
        <path class="cls-2" d="M581.06,47.24v28.61h-85.83v28.39h75.29v27.32h-75.29v30.98h86.9v28.82h-122.18V47.24h121.11Z"/>
        <path class="cls-2" d="M670.78,45.09c42.81,0,69.7,19.79,69.7,56.14v3.44h-35.71v-3.44c0-15.92-11.4-25.38-34.2-25.38h-4.52c-22.37,0-34.85,10.11-34.85,30.33v25.81c0,21.3,12.69,30.76,34.85,30.76h4.52c22.8,0,34.85-9.47,34.85-26.03v-2.15h35.92v2.15c0,37.21-27.75,56.79-70.56,56.79h-4.73c-41.73,0-70.56-19.79-70.56-61.52v-25.81c0-40.66,28.82-61.09,70.56-61.09h4.73Z"/>
        <path class="cls-2" d="M790.71,47.24v55.93h6.67l53.99-55.93h41.09l-63.03,65.18v7.74l65.82,71.2h-43.45l-54.42-58.94h-6.67v58.94h-35.28V47.24h35.28Z"/>
        <path class="cls-2" d="M992.21,47.24c29.9,0,49.48,10.33,49.48,35.06v4.52c0,11.62-5.59,20.65-16.56,26.89v4.95c12.91,5.59,20.01,15.49,20.01,30.12v5.38c0,23.45-17.21,37.21-50.34,37.21h-85.4V47.24h82.82ZM944.02,106.18h43.45c12.05,0,18.93-4.95,18.93-14.41v-3.87c0-9.47-6.67-14.2-19.36-14.2h-43.02v32.48ZM944.02,164.9h44.96c13.98,0,21.08-4.95,21.08-15.49v-3.87c0-10.33-7.31-15.27-21.51-15.27h-44.53v34.63Z"/>
        <path class="cls-2" d="M1080.76,47.24l37.21,53.13h9.03l35.92-53.13h35.92l-58.94,87.12v57h-35.28v-57l-62.38-87.12h38.5Z"/>
        <path class="cls-2" d="M1357.23,47.24v29.25h-53.78v114.87h-35.49v-114.87h-53.78v-29.25h143.05Z"/>
        <path class="cls-2" d="M1492.44,47.24v28.61h-85.83v28.39h75.29v27.32h-75.29v30.98h86.9v28.82h-122.18V47.24h121.11Z"/>
      </g>
    </g>
  </g>
</svg>